<svg xmlns="http://www.w3.org/2000/svg" viewBox="0 0 32 32">
  <defs>
    <linearGradient id="vsGrad" x1="0%" y1="0%" x2="100%" y2="100%">
      <stop offset="0%" style="stop-color:#a855f7"/>
      <stop offset="100%" style="stop-color:#6b21a8"/>
    </linearGradient>
  </defs>
  <rect width="32" height="32" rx="6" fill="url(#vsGrad)"/>
  <path d="M7 12V9c0-1.1.9-2 2-2h4v1c0 1.7 1.3 3 3 3s3-1.3 3-3V7h4c1.1 0 2 .9 2 2v4h-1c-1.7 0-3 1.3-3 3s1.3 3 3 3h1v4c0 1.1-.9 2-2 2h-4v-1c0-1.7-1.3-3-3-3s-3 1.3-3 3v1H9c-1.1 0-2-.9-2-2v-4h1c1.7 0 3-1.3 3-3s-1.3-3-3-3H7z" fill="white"/>
</svg>
